<?xml version="1.0" encoding="UTF-8"?>
<svg version="1.1" xmlns="http://www.w3.org/2000/svg" width="388" height="388">
<path d="M0 0 C0.80036682 -0.00705963 1.60073364 -0.01411926 2.425354 -0.02139282 C35.55965886 -0.24730671 35.55965886 -0.24730671 50.390625 3.203125 C51.28523437 3.40180176 52.17984375 3.60047852 53.1015625 3.80517578 C86.4627806 11.3487439 115.86542077 26.5122183 141.390625 49.203125 C142.38191406 50.07195313 143.37320312 50.94078125 144.39453125 51.8359375 C149.81750295 56.66127559 154.81642732 61.56963944 159.390625 67.203125 C160.60298828 68.65912109 160.60298828 68.65912109 161.83984375 70.14453125 C187.39478411 101.32573641 205.35381051 142.01400148 205.59375 182.8125 C205.60080963 183.61286682 205.60786926 184.41323364 205.61514282 185.237854 C205.84105671 218.37215886 205.84105671 218.37215886 202.390625 233.203125 C202.19194824 234.09773437 201.99327148 234.99234375 201.78857422 235.9140625 C194.2450061 269.2752806 179.0815317 298.67792077 156.390625 324.203125 C155.52179688 325.19441406 154.65296875 326.18570312 153.7578125 327.20703125 C148.93247441 332.63000295 144.02411056 337.62892732 138.390625 342.203125 C137.41996094 343.01136719 136.44929688 343.81960938 135.44921875 344.65234375 C104.26801359 370.20728411 63.57974852 388.16631051 22.78125 388.40625 C21.98088318 388.41330963 21.18051636 388.42036926 20.355896 388.42764282 C-12.77840886 388.65355671 -12.77840886 388.65355671 -27.609375 385.203125 C-28.50398437 385.00444824 -29.39859375 384.80577148 -30.3203125 384.60107422 C-63.6815306 377.0575061 -93.08417077 361.8940317 -118.609375 339.203125 C-119.60066406 338.33429688 -120.59195313 337.46546875 -121.61328125 336.5703125 C-127.03625295 331.74497441 -132.03517732 326.83661056 -136.609375 321.203125 C-137.41761719 320.23246094 -138.22585937 319.26179688 -139.05859375 318.26171875 C-164.61353411 287.08051359 -182.57256051 246.39224852 -182.8125 205.59375 C-182.81955963 204.79338318 -182.82661926 203.99301636 -182.83389282 203.168396 C-183.05980671 170.03409114 -183.05980671 170.03409114 -179.609375 155.203125 C-179.41069824 154.30851563 -179.21202148 153.41390625 -179.00732422 152.4921875 C-171.4637561 119.1309694 -156.3002817 89.72832923 -133.609375 64.203125 C-132.74054688 63.21183594 -131.87171875 62.22054687 -130.9765625 61.19921875 C-126.15122441 55.77624705 -121.24286056 50.77732268 -115.609375 46.203125 C-114.63871094 45.39488281 -113.66804688 44.58664063 -112.66796875 43.75390625 C-81.48676359 18.19896589 -40.79849852 0.23993949 0 0 Z " fill="#0F6E56" transform="translate(182.609375,-0.203125)"/>
<path d="M0 0 C2.05643788 1.79665763 4.0904519 3.61583839 6.125 5.4375 C6.98480469 6.16453125 7.84460938 6.8915625 8.73046875 7.640625 C39.54653352 34.09638807 58.61843396 75.01653797 62.84375 115.03515625 C64.28949587 134.76124658 63.17103253 154.28451566 58.125 173.4375 C57.61732086 173.28040558 57.10964172 173.12331116 56.58657837 172.9614563 C53.3154035 172.26517431 50.07074316 172.16531961 46.73974609 172.05419922 C46.00063995 172.02674622 45.26153381 171.99929321 44.50003052 171.9710083 C37.61899255 171.72928253 30.73572793 171.58697369 23.85147667 171.47456169 C19.24673083 171.39779818 14.64798782 171.2895644 10.04638672 171.10009766 C-15.36428308 170.07954059 -32.41978188 172.09001916 -51.875 189.4375 C-58.51115492 182.80134508 -62.22770646 163.78097673 -63.16796875 154.56640625 C-62.90320491 151.73872844 -62.3685562 149.83420039 -61.40625 147.203125 C-59.61626123 142.15822741 -59.3357913 137.51057127 -59.375 132.1875 C-59.38144531 131.26799561 -59.38789063 130.34849121 -59.39453125 129.40112305 C-59.72546455 117.00527596 -64.08386469 107.22863531 -72.875 98.4375 C-74.58672465 97.14326917 -76.3162813 95.87229907 -78.0625 94.625 C-83.33836488 90.68428498 -84.95064201 86.38729692 -86.83984375 80.1953125 C-87.67768014 77.14723067 -87.67768014 77.14723067 -90.875 75.4375 C-96.44683055 74.79559379 -96.44683055 74.79559379 -101.25 77.125 C-102.91530681 79.49485968 -103.84713705 81.74271149 -104.875 84.4375 C-105.66261719 84.45167969 -106.45023438 84.46585937 -107.26171875 84.48046875 C-122.15913884 85.13278182 -133.34249483 90.39288128 -143.5625 101.125 C-147.67409492 105.9955108 -150.2508777 111.67019823 -152.875 117.4375 C-153.535 117.4375 -154.195 117.4375 -154.875 117.4375 C-155.32939453 115.86548828 -155.32939453 115.86548828 -155.79296875 114.26171875 C-156.21517409 112.88251465 -156.63840529 111.5036243 -157.0625 110.125 C-157.25908203 109.43470703 -157.45566406 108.74441406 -157.65820312 108.03320312 C-158.72261334 104.64346596 -159.53569377 102.70329876 -162.36328125 100.48828125 C-165.54251316 99.15824489 -167.46103096 98.86850516 -170.875 99.4375 C-175.01563584 102.90841683 -176.78820841 105.94931782 -178.44628906 111.04785156 C-178.65999146 111.69071106 -178.87369385 112.33357056 -179.09387207 112.99591064 C-179.79031841 115.10228522 -180.46539918 117.2148628 -181.140625 119.328125 C-181.62292535 120.79878044 -182.10665104 122.26896914 -182.59173584 123.7387085 C-183.86043824 127.59415205 -185.11151336 131.45508072 -186.35839844 135.31762695 C-188.12418693 140.77638775 -189.91410287 146.22729588 -191.70111084 151.67913818 C-192.65211063 154.58070784 -193.59649319 157.48430407 -194.53570557 160.38970947 C-194.96421707 161.70805381 -195.39274404 163.02639312 -195.82128906 164.34472656 C-196.19481506 165.49990784 -196.56834106 166.65508911 -196.95318604 167.84527588 C-197.875 170.4375 -197.875 170.4375 -198.875 171.4375 C-201.03656169 171.55624846 -203.20199005 171.60494531 -205.36669922 171.62695312 C-206.38381485 171.63939308 -206.38381485 171.63939308 -207.42147827 171.65208435 C-208.89854437 171.66952107 -210.37563868 171.68467789 -211.85274887 171.69786072 C-214.18927082 171.71883603 -216.52565173 171.74586431 -218.86209106 171.77453613 C-223.82467345 171.83433213 -228.78732131 171.88641606 -233.75 171.9375 C-239.49225337 171.99669992 -245.23443784 172.05902745 -250.97656631 172.12937927 C-253.28040626 172.15596975 -255.58425298 172.17677781 -257.88815308 172.1973877 C-259.30027596 172.21399262 -260.71239574 172.23086462 -262.12451172 172.24804688 C-263.35837616 172.26057495 -264.5922406 172.27310303 -265.86349487 172.28601074 C-268.92461787 172.30505785 -268.92461787 172.30505785 -271.875 173.4375 C-272.52844814 170.64742842 -273.17284402 167.85573822 -273.8125 165.0625 C-274.08610352 163.90041016 -274.08610352 163.90041016 -274.36523438 162.71484375 C-279.44871373 140.34753459 -277.74485278 116.66254953 -272.875 94.4375 C-272.70371582 93.64085937 -272.53243164 92.84421875 -272.35595703 92.0234375 C-262.69131025 48.79712105 -233.74488992 11.49394803 -196.87890625 -12.16015625 C-177.78600405 -24.03031715 -156.98616061 -31.70218374 -134.875 -35.5625 C-133.18890625 -35.87380859 -133.18890625 -35.87380859 -131.46875 -36.19140625 C-86.30563435 -43.46429537 -34.9714534 -29.80627886 0 0 Z " fill="#FEFEFE" transform="translate(300.875,61.5625)"/>
<path d="M0 0 C0.66 0 1.32 0 2 0 C2.33159622 1.1164238 2.66319244 2.2328476 3.00483704 3.38310242 C6.13121943 13.90574995 9.26487293 24.42620796 12.40565205 34.94456768 C14.02010946 40.35218161 15.63199842 45.7605335 17.23803711 51.1706543 C18.78813763 56.39199539 20.34495898 61.61128889 21.90645409 66.82923317 C22.50091374 68.82000137 23.09295103 70.81149457 23.68251991 72.80371666 C24.5089084 75.59465582 25.34388373 78.38288954 26.1809082 81.1706543 C26.54343437 82.40603943 26.54343437 82.40603943 26.9132843 83.66638184 C28.5916439 89.21104094 29.99379079 93.66252719 35 97 C38.76658012 96.86303345 41.15891399 96.68572406 44.12068176 94.27104187 C46.22093992 91.73300754 46.86627324 89.97432197 47.6315918 86.78833008 C47.88833176 85.75078079 48.14507172 84.71323151 48.40959167 83.64424133 C48.67016861 82.53058701 48.93074554 81.41693268 49.19921875 80.26953125 C49.47973587 79.12336838 49.76025299 77.97720551 50.04927063 76.79631042 C50.94207193 73.13813828 51.81547558 69.47567502 52.6875 65.8125 C53.57389642 62.13960123 54.46423843 58.46770082 55.35786438 54.79655457 C55.91269124 52.5118923 56.46259992 50.22602927 57.00724792 47.93891907 C57.2545314 46.91082626 57.50181488 45.88273346 57.7565918 44.82348633 C58.08157906 43.45925285 58.08157906 43.45925285 58.41313171 42.06745911 C59 40 59 40 60 39 C61.74861792 38.89146509 63.49919241 38.81416572 65.25 38.75 C71.3654273 38.3048436 76.36517223 36.61612444 81.9921875 34.25390625 C84.95885595 33.01715226 87.94704294 32.00060018 91 31 C91.31227539 32.06436279 91.62455078 33.12872559 91.94628906 34.2253418 C93.11255821 38.18913291 94.29400048 42.14826733 95.47998047 46.10620117 C95.99029092 47.81688996 96.49652817 49.5287995 96.99853516 51.24194336 C97.72260327 53.71022705 98.46141118 56.17368828 99.203125 58.63671875 C99.42309143 59.39836838 99.64305786 60.16001801 99.86968994 60.94474792 C101.2160216 65.35466535 102.63742233 68.68498915 106 72 C109.17961995 73.49360023 111.71565692 73.10910904 115 72 C117.05409565 70.37740645 118.9012452 68.76823772 120.78515625 66.96875 C141.18923145 48.09796022 160.49554741 46.92882524 187.125 47.5625 C187.95745869 47.58218842 188.78991737 47.60187683 189.64760208 47.62216187 C200.10959226 47.88778424 210.55470895 48.3545431 221 49 C215.45549305 77.84495254 190.71528275 106.65027909 168 124 C166.61748047 125.10601562 166.61748047 125.10601562 165.20703125 126.234375 C130.95559568 153.04386573 85.71414709 165.43216814 42.578125 160.46875 C38.01196444 159.83185587 33.50491453 158.9755269 29 158 C27.97156982 157.7831958 27.97156982 157.7831958 26.92236328 157.56201172 C10.33407622 153.98274691 -5.0926473 148.06627977 -20 140 C-21.07121094 139.4225 -22.14242187 138.845 -23.24609375 138.25 C-55.38807409 120.19364694 -77.87271122 92.52561436 -93.5625 59.6875 C-93.90949951 58.96385254 -94.25649902 58.24020508 -94.61401367 57.49462891 C-96.01055189 54.4953474 -97 52.34863605 -97 49 C-96.04422058 48.99191315 -95.08844116 48.98382629 -94.10369873 48.97549438 C-85.09854596 48.8980263 -76.09354416 48.8102853 -67.08858871 48.71247292 C-62.458992 48.6625165 -57.82941803 48.61618637 -53.19970703 48.578125 C-48.73219468 48.54126397 -44.26487293 48.49490173 -39.7975235 48.44193649 C-38.09271842 48.4233969 -36.38787249 48.40828732 -34.68300629 48.39665604 C-32.29595909 48.3797861 -29.90934797 48.35074957 -27.52246094 48.31884766 C-26.81683517 48.31668747 -26.11120941 48.31452728 -25.38420105 48.31230164 C-21.79943267 48.251054 -18.93119416 48.18084146 -16 46 C-14.76566274 44.15050351 -14.76566274 44.15050351 -13.93847656 41.93579102 C-13.60819458 41.12868683 -13.2779126 40.32158264 -12.93762207 39.49002075 C-11.51062711 35.700384 -10.20797483 31.88715562 -8.984375 28.02734375 C-8.72368225 27.21882462 -8.4629895 26.41030548 -8.19439697 25.57728577 C-7.37493092 23.03216177 -6.5623486 20.4849035 -5.75 17.9375 C-5.19056103 16.19581673 -4.63066911 14.45427888 -4.0703125 12.71289062 C-2.70830862 8.47692061 -1.35246719 4.23902405 0 0 Z " fill="#FDFEFE" transform="translate(132,203)"/>
<path d="M0 0 C3.58409797 0.86688548 4.81756349 2.48373578 6.921875 5.46484375 C7.53662599 7.24597497 8.11705154 9.0391444 8.671875 10.83984375 C10.4938388 16.34999337 12.92704786 18.55350623 17.61328125 21.80078125 C24.54169739 26.79486801 28.67084699 33.69646971 31.921875 41.46484375 C32.29054687 42.34269531 32.65921875 43.22054687 33.0390625 44.125 C34.25084952 48.70941549 34.25108324 53.05559493 34.234375 57.77734375 C34.25048828 58.67646484 34.26660156 59.57558594 34.28320312 60.50195312 C34.28718122 66.00366086 33.49494507 70.37058064 31.58276367 75.51928711 C28.90456175 83.40350991 32.99650791 92.39726921 35.64453125 99.84765625 C37.23179386 104.34247331 38.59705728 108.88722155 39.921875 113.46484375 C43.71922976 113.46484375 44.25935469 112.51697365 47.01464844 110.00439453 C65.27822193 94.754925 82.53638744 95.39699009 105.42163086 96.24963379 C109.12895987 96.37123681 112.83582628 96.42295723 116.54472733 96.47158623 C124.19951113 96.57206024 131.85401344 96.71598692 139.50488281 96.98388672 C140.54884216 97.01080597 140.54884216 97.01080597 141.6138916 97.03826904 C145.17188386 97.18121862 147.92303029 97.46740889 150.921875 99.46484375 C153.46763291 102.90161693 153.35860376 106.3159205 152.921875 110.46484375 C150.74360739 113.8878357 148.26606641 116.19557101 144.921875 118.46484375 C144.921875 117.80484375 144.921875 117.14484375 144.921875 116.46484375 C133.63285276 115.93836384 122.34767817 115.63228826 111.046875 115.52734375 C110.219492 115.51953259 109.39210899 115.51172142 108.53965378 115.50367355 C81.82158998 115.32330659 63.24129102 117.92879492 43.1463623 136.94569397 C40.17196929 139.68111944 38.00195614 141.27352228 33.91796875 141.5546875 C30.59379755 141.38533144 29.7474698 140.29014177 27.33935547 137.87792969 C24.70379894 134.49542906 23.40430902 130.85657496 22.24609375 126.765625 C21.92376518 125.69032784 21.92376518 125.69032784 21.59492493 124.5933075 C21.1471748 123.09018804 20.7063531 121.58498867 20.2722168 120.07788086 C19.60705825 117.76930296 18.92171358 115.46749083 18.23242188 113.16601562 C17.79830606 111.69956552 17.36532282 110.23277955 16.93359375 108.765625 C16.62901497 107.7343322 16.62901497 107.7343322 16.31828308 106.6822052 C15.50096075 103.83556241 14.921875 101.4440005 14.921875 98.46484375 C14.05304688 98.87476563 13.18421875 99.2846875 12.2890625 99.70703125 C11.13664063 100.24585938 9.98421875 100.7846875 8.796875 101.33984375 C7.09144531 102.14035156 7.09144531 102.14035156 5.3515625 102.95703125 C0.00335683 105.30829251 -4.45261711 106.57012161 -10.28564453 107.01904297 C-11.91132858 107.1465242 -11.91132858 107.1465242 -13.56985474 107.27658081 C-14.81144852 107.36977097 -14.81144852 107.36977097 -16.078125 107.46484375 C-16.22988693 108.10520065 -16.38164886 108.74555756 -16.53800964 109.40531921 C-18.12308371 116.07783435 -19.7331097 122.74397256 -21.35766602 129.40698242 C-21.96042746 131.89339362 -22.55683991 134.38135299 -23.14672852 136.87084961 C-23.99646425 140.45203194 -24.86898716 144.02699892 -25.74609375 147.6015625 C-26.13392281 149.26900764 -26.13392281 149.26900764 -26.52958679 150.97013855 C-28.00230512 156.86743199 -29.07522262 160.81463028 -34.078125 164.46484375 C-37.515625 165.58984375 -37.515625 165.58984375 -41.078125 165.46484375 C-47.17118461 161.62490043 -48.61900153 157.42028905 -50.5234375 150.6640625 C-50.8157576 149.6908606 -51.1080777 148.71765869 -51.40925598 147.71496582 C-52.36012124 144.53286445 -53.28178427 141.34310594 -54.203125 138.15234375 C-54.85431731 135.95102062 -55.50741158 133.75025928 -56.16235352 131.55004883 C-57.4962855 127.05966686 -58.81927097 122.56627166 -60.13427734 118.0703125 C-61.95619139 111.85579968 -63.83006296 105.65814441 -65.72265625 99.46484375 C-66.55605851 96.72923756 -67.38900095 93.99349171 -68.22186279 91.25772095 C-68.74911703 89.52710673 -69.27730853 87.79677777 -69.80645752 86.06674194 C-70.5366534 83.67372924 -71.25956798 81.27863906 -71.98046875 78.8828125 C-72.19532425 78.18401978 -72.41017975 77.48522705 -72.63154602 76.76525879 C-73.61666487 73.46714346 -74.078125 70.95144021 -74.078125 67.46484375 C-74.738125 67.46484375 -75.398125 67.46484375 -76.078125 67.46484375 C-76.18987061 68.44694824 -76.30161621 69.42905273 -76.41674805 70.44091797 C-77.03506931 74.74172633 -78.29129957 78.73373661 -79.66015625 82.84765625 C-79.91560715 83.62495087 -80.17105804 84.40224548 -80.43424988 85.20309448 C-80.97333357 86.83612886 -81.51556561 88.46812699 -82.06079102 90.09912109 C-82.88924418 92.58569925 -83.6999008 95.07762763 -84.50976562 97.5703125 C-85.03798752 99.16311731 -85.56724944 100.75557768 -86.09765625 102.34765625 C-86.33635941 103.0873465 -86.57506256 103.82703674 -86.82099915 104.58914185 C-88.27746453 108.8823548 -89.85208434 112.15182554 -93.078125 115.46484375 C-96.5863653 116.63425718 -99.81272731 116.68695811 -103.46777344 116.76538086 C-104.21774597 116.78491821 -104.96771851 116.80445557 -105.74041748 116.82458496 C-108.222677 116.88680941 -110.70499362 116.94078372 -113.1875 116.9921875 C-114.03655159 117.00979189 -114.88560318 117.02739628 -115.76038361 117.04553413 C-120.2551872 117.13636363 -124.75007391 117.21913045 -129.24511719 117.29711914 C-132.96053195 117.36330901 -136.67495306 117.44663688 -140.38964844 117.54516602 C-144.87972652 117.66416687 -149.36946828 117.75313918 -153.86060333 117.82086372 C-155.56876694 117.85157065 -157.27677729 117.89269471 -158.98442841 117.94459343 C-174.01716993 118.38744887 -174.01716993 118.38744887 -178.64550781 114.69750977 C-180.89069429 112.35302362 -181.49618542 110.56885581 -181.640625 107.33984375 C-180.84931144 101.88857256 -180.84931144 101.88857256 -179.078125 99.46484375 C-175.43476049 97.03593407 -173.65504194 97.19278181 -169.31176758 97.14599609 C-168.62857956 97.13595047 -167.94539154 97.12590485 -167.24150085 97.11555481 C-164.98522781 97.08468489 -162.72907363 97.06767743 -160.47265625 97.05078125 C-158.90751622 97.03207263 -157.34238631 97.01249944 -155.77726746 96.99209595 C-151.65916912 96.94073627 -147.54103806 96.90113119 -143.42279053 96.86395264 C-139.21992881 96.82393696 -135.01720363 96.77283353 -130.81445312 96.72265625 C-122.56910364 96.62585158 -114.32368666 96.54146144 -106.078125 96.46484375 C-105.81138977 95.64909378 -105.54465454 94.83334381 -105.26983643 93.99287415 C-102.75048348 86.29437863 -100.2209596 78.59931672 -97.68004227 70.90791035 C-96.37418279 66.95384914 -95.0722502 62.99858528 -93.77929688 59.0402832 C-92.5306691 55.21817286 -91.27172115 51.39960465 -90.00563812 47.58324242 C-89.52514639 46.12886388 -89.04834438 44.67326082 -88.57535553 43.21642494 C-87.91064156 41.17124378 -87.23277032 39.13086666 -86.55175781 37.09106445 C-85.97884003 35.34899467 -85.97884003 35.34899467 -85.39434814 33.57173157 C-83.76357932 29.72237228 -81.90935685 26.38045967 -78.078125 24.46484375 C-74.51093737 24.05948152 -72.29958859 24.37625831 -68.953125 25.71484375 C-64.66303143 29.81841152 -63.43823352 34.77638988 -62.078125 40.46484375 C-62.078125 41.45484375 -62.078125 42.44484375 -62.078125 43.46484375 C-61.418125 43.46484375 -60.758125 43.46484375 -60.078125 43.46484375 C-59.8925 42.51609375 -59.706875 41.56734375 -59.515625 40.58984375 C-56.29500474 29.3857141 -46.45658031 20.29423064 -36.60546875 14.75390625 C-28.35002787 10.54324861 -21.3221264 10.07908171 -12.078125 10.46484375 C-11.95566406 9.69785156 -11.83320313 8.93085938 -11.70703125 8.140625 C-10.25601968 1.96706648 -5.99152851 -0.46175314 0 0 Z " fill="#1E9E75" transform="translate(208.078125,135.53515625)"/>
<path d="M0 0 C3.63 1.98 7.26 3.96 11 6 C9.125 18.1875 9.125 18.1875 7 23 C6.67 23 6.34 23 6 23 C4.99572108 19.54289448 3.9973056 16.08412303 3 12.625 C2.71382812 11.64015625 2.42765625 10.6553125 2.1328125 9.640625 C1.86210937 8.69960937 1.59140625 7.75859375 1.3125 6.7890625 C1.06113281 5.91975098 0.80976563 5.05043945 0.55078125 4.15478516 C0 2 0 2 0 0 Z " fill="#EDF7F4" transform="translate(162,231)"/>
</svg>
